<svg xmlns="http://www.w3.org/2000/svg" xmlns:xlink="http://www.w3.org/1999/xlink" width="100" height="100" viewBox="0 0 100 100"><rect width="100%" height="100%" fill="#FF8400"></rect><g transform="translate(50 50) scale(0.69 0.69) rotate(0) translate(-50 -50)" style="fill:#000000"><svg fill="#000000" xmlns="http://www.w3.org/2000/svg" xmlns:xlink="http://www.w3.org/1999/xlink" version="1.1" x="0px" y="0px" viewBox="0 0 64 64" style="enable-background:new 0 0 64 64;" xml:space="preserve"><g><g><path d="M21.463,47.063c-1.25,1.25-3.276,1.25-4.525,0c-1.25-1.25-1.25-3.276,0-4.525l25.6-25.6c1.25-1.25,3.276-1.25,4.525,0    c1.25,1.25,1.25,3.276,0,4.525L21.463,47.063z"></path><path d="M30.561,16H19.2c-1.767,0-3.2,1.433-3.2,3.2v11.361c0,1.425,1.723,2.139,2.731,1.131l12.961-12.961    C32.701,17.723,31.987,16,30.561,16z"></path></g></g></svg></g></svg>